<?xml version="1.0" encoding="utf-8"?>
<!-- Generator: Adobe Illustrator 23.0.4, SVG Export Plug-In . SVG Version: 6.00 Build 0)  -->
<svg version="1.1" id="Layer_1" xmlns="http://www.w3.org/2000/svg" xmlns:xlink="http://www.w3.org/1999/xlink" x="0px" y="0px"
	 viewBox="0 0 413 505.1" style="enable-background:new 0 0 413 505.1;" xml:space="preserve">
<style type="text/css">
	.st0{fill:none;stroke:#000000;stroke-width:12;stroke-miterlimit:10;}
</style>
<title>icon</title>
<path class="st0" d="M6,328.1V149.5c0-4.7,3.8-8.4,8.4-8.4h129.1c4.7,0,8.4-3.8,8.4-8.4V14.5c0-7.5,9.1-11.3,14.4-6l238.1,238.1
	c1.6,1.6,2.5,3.7,2.5,6v0c0,2.2-0.9,4.4-2.5,6L166.4,496.6c-5.3,5.3-14.4,1.6-14.4-6V382.5c0-4.7-3.8-8.4-8.4-8.4H14.4
	c-4.7,0-8.4-3.8-8.4-8.4V187.1"/>
</svg>
