<?xml version="1.0" encoding="utf-8"?>
<!-- Generator: Adobe Illustrator 23.0.4, SVG Export Plug-In . SVG Version: 6.00 Build 0)  -->
<svg version="1.1" id="Layer_1" xmlns="http://www.w3.org/2000/svg" xmlns:xlink="http://www.w3.org/1999/xlink" x="0px" y="0px"
	 viewBox="0 0 517 517" style="enable-background:new 0 0 517 517;" xml:space="preserve">
<style type="text/css">
	.st0{fill:none;stroke:#000000;stroke-width:16;stroke-miterlimit:10;}
</style>
<title>icon</title>
<path class="st0" d="M493,124.3L393.7,25c-13.3-13.3-34.8-13.3-48.1,0l-63,63c-13.3,13.3-34.8,13.3-48.1,0l-63-63
	c-13.3-13.3-34.8-13.3-48.1,0L24,124.3c-13.3,13.3-13.3,34.8,0,48.1l63,63c13.3,13.3,13.3,34.8,0,48.1l-63,63
	c-13.3,13.3-13.3,34.8,0,48.1l99.3,99.3c13.3,13.3,34.8,13.3,48.1,0l63-63c13.3-13.3,34.8-13.3,48.1,0l63,63
	c13.3,13.3,34.8,13.3,48.1,0l99.3-99.3c13.3-13.3,13.3-34.8,0-48.1l-63-63c-13.3-13.3-13.3-34.8,0-48.1l63-63
	C506.2,159.1,506.2,137.6,493,124.3z"/>
</svg>
