<?xml version="1.0" encoding="utf-8"?>
<!-- Generator: Adobe Illustrator 23.0.3, SVG Export Plug-In . SVG Version: 6.00 Build 0)  -->
<svg version="1.1" id="Layer_1" xmlns="http://www.w3.org/2000/svg" xmlns:xlink="http://www.w3.org/1999/xlink" x="0px" y="0px"
	 viewBox="0 0 897.1 93" style="enable-background:new 0 0 897.1 93;" xml:space="preserve">
<g>
	<path d="M648.1,17.3h15.4v58.4h30.2v12h-45.6V17.3z"/>
	<path d="M591.2,17.4H613c10.1,0,18.6,0.7,24.5,7.7c3.7,4.5,4.3,9.5,4.3,13.2c0,8.2-3.4,15.1-9,18.7c-5.2,3.3-12.3,3.3-16,3.3h-10.2
		v27.4h-15.3V17.4z M606.1,49.1h6c4.9,0,13.9,0,13.9-10.7c0-9.5-8.1-9.5-12.4-9.5h-7.6V49.1z"/>
	<path d="M741.4,17.2l24.5,70.4h-15.2l-5.1-15.2h-27.9l-5.3,15.2h-14.4l25.4-70.4H741.4z M741.8,61.1l-9.7-30l-10.4,30H741.8z"/>
	<path d="M770.9,17.2h21.8l26.4,55.4V17.2h14v70.4h-20.7l-27.3-58.5v58.5h-14.2V17.2z"/>
	<path d="M860.9,28.9H840V17.2h57.1v11.7h-20.9v58.7h-15.2V28.9z"/>
	<g>
		<path d="M36.5,18L36.5,18c5.3,0,10.1,2.5,12.1,6.3c2.7,5.1-0.6,11-7.2,13c-1.6,0.5-3.2,0.7-4.9,0.7c-5.3,0-10.1-2.5-12.1-6.3
			c-2.7-5.1,0.6-11,7.2-13C33.2,18.3,34.8,18,36.5,18 M36.5,12c-2.6,0-5.2,0.4-7.8,1.2C18,16.5,12.9,25.8,17.2,34
			c3.3,6.2,11.1,10,19.3,10c2.6,0,5.2-0.4,7.8-1.2C55,39.6,60.1,30.2,55.9,22C52.6,15.8,44.8,12,36.5,12L36.5,12z"/>
		<polygon points="49.5,93 22.2,93 18.3,65 54.8,65 		"/>
		<rect x="32.6" y="43" width="7.8" height="24"/>
		<ellipse transform="matrix(0.836 -0.5487 0.5487 0.836 -0.8019 16.2463)" cx="26.8" cy="9.5" rx="6.2" ry="10.6"/>
		<ellipse transform="matrix(0.5695 -0.822 0.822 0.5695 12.2087 42.5506)" cx="46.7" cy="9.6" rx="10.6" ry="6.1"/>
		<ellipse transform="matrix(0.9656 -0.26 0.26 0.9656 -3.2567 16.4839)" cx="60.7" cy="20.6" rx="12.7" ry="5.1"/>
		<ellipse transform="matrix(0.274 -0.9617 0.9617 0.274 9.426 84.2056)" cx="60.5" cy="35.9" rx="5.1" ry="12.7"/>
		<ellipse transform="matrix(0.836 -0.5487 0.5487 0.836 -17.9724 33.0062)" cx="46.2" cy="46.6" rx="6.2" ry="10.6"/>
		<ellipse transform="matrix(0.5695 -0.822 0.822 0.5695 -26.8363 41.5968)" cx="26.3" cy="46.4" rx="10.6" ry="6.1"/>
		<ellipse transform="matrix(0.9656 -0.26 0.26 0.9656 -8.8013 4.4265)" cx="12.3" cy="35.5" rx="12.7" ry="5.1"/>
		<ellipse transform="matrix(0.274 -0.9617 0.9617 0.274 -10.3054 26.706)" cx="12.5" cy="20.2" rx="5.1" ry="12.7"/>
		<rect x="15.7" y="65" width="43" height="5"/>
	</g>
	<path d="M101.1,16.5l15.1,0L116,87l-15.1,0L101.1,16.5z"/>
	<path d="M126.1,16.6l21.8,0.1l26.2,55.5l0.2-55.4l14,0l-0.2,70.5l-20.7-0.1l-27.1-58.6l-0.2,58.5l-14.2,0L126.1,16.6z"/>
	<path d="M197.9,17l23.3,0.2c3.9,0,15.8,0.1,24.3,6.4c8.9,6.5,11.9,17.6,11.9,27.7c-0.1,21.6-11.7,32.9-25,35.3
		c-2.6,0.5-5.6,0.8-12.7,0.8l-22-0.1L197.9,17z M213.1,75.7c1.7,0.1,4.2,0.2,5.9,0.2c6.4,0,12-0.5,16.4-4.9
		c5.9-5.9,6.3-16.5,6.4-19.9c0-9.9-3.3-19.1-12.8-21.7c-3.1-0.9-7.1-1.4-15.8-1L213,75.7L213.1,75.7z"/>
	<path d="M302.4,17.3l-0.1,42.1c0,7.1-0.8,9.8-2.2,12c-3.6,5.6-8.6,6.1-11.3,6.1c-2.4,0-5.8-0.5-9.5-6.1c-1.5-2.1-2.2-4.9-2.2-12
		l0.1-42.1l-14.7,0l-0.1,43.9c-0.1,20.1,11.9,27.1,25.5,27.7l0,0.1c0.3,0,0.6,0,0.8,0c0.3,0,0.6,0,0.8,0l0-0.1
		c13.7-0.5,27.4-7.4,27.5-27.5l0.1-43.9L302.4,17.3z"/>
	<path d="M338.2,65.1c0,3.3-0.2,13.4,12.8,13.4c8.2,0,13.3-3.9,13.3-9.8c0-6.2-4.4-7.3-13.3-9.5c-16.8-4.2-26-9.3-25.9-21.5
		c0-11.6,8.4-21.8,28-21.7c7.3,0,16,1.7,21.2,8.4c4,5.1,4,10.7,4,13.1l-14.5,0c-0.2-2.4-1-10.7-11.4-10.7c-7,0-11.6,3.8-11.6,9.6
		c0,6.5,5.2,7.7,15.3,10.2c12.2,2.9,24.2,6.3,24.1,20.1c0,12.7-10.6,22.9-30.1,22.8c-27-0.1-27.1-17.4-27.2-24.3L338.2,65.1
		L338.2,65.1z"/>
	<path d="M403,29.1l-21-0.1l0-11.7l57.1,0.2l0,11.7l-21-0.1L417.9,88l-15.2,0l0.2-58.8L403,29.1z"/>
	<path d="M444.3,17.6l27,0.1c7.8-0.1,15.7-0.1,21.3,4.9c4.4,3.8,6.1,9,6.1,13.5c0,13.2-11.3,16.3-14.8,17.2c10.6,1,11.4,7,12.7,16.2
		c1.1,8.3,1.7,11.7,2.1,13.6c0.8,3.1,1.4,3.9,2.1,5.1l-16.7,0c-0.7-3.9-2.7-21.7-3.7-24.5c-1.4-4-5.1-4-7.6-4l-13.3,0L459.3,88
		l-15.4,0l0.2-70.4L444.3,17.6z M459.1,48.4l12.2,0c1.8,0,5.3,0,7.7-1.9c1.1-0.8,3.9-3.2,3.9-8.2c0-4.8-2.3-7-3.7-7.9
		c-2.3-1.7-5.2-1.7-9.9-1.7l-10.1,0l-0.1,19.7L459.1,48.4z"/>
	<path d="M518.7,18.1l14.4,32.1l15-32.1l15.5,0l-23.9,44.4l-0.1,25.6l-14.9,0l0.1-25.8L501.1,18L518.7,18.1z"/>
</g>
</svg>
