<?xml version="1.0" encoding="utf-8"?>
<!-- Generator: Adobe Illustrator 23.0.3, SVG Export Plug-In . SVG Version: 6.00 Build 0)  -->
<svg version="1.1" id="Layer_1" xmlns="http://www.w3.org/2000/svg" xmlns:xlink="http://www.w3.org/1999/xlink" x="0px" y="0px"
	 viewBox="0 0 823.5 1469.6" style="enable-background:new 0 0 823.5 1469.6;" xml:space="preserve">
<style type="text/css">
	.st0{fill:#000000;}
</style>
<g>
	<g>
		<path class="st0" d="M487.5,1302.5c-10.9,18.9-21.8,37.7-32.7,56.6c2.6,2,4.8,3.9,7.2,5.5c4.6,3,3.9,6.5,1.3,10.2
			c-5.3,7.9-10.8,15.6-16,23.6c-13.1,20.3-26.2,40.6-39.1,61c-4.9,7.6-14.3,12.3-22.8,9.3c-6.1-2.1-11.7-6-17.4-9.3
			c-3.4-2-6.7-4.4-9.8-6.9c-11.7-9.3-23.9-18.2-34.9-28.4c-6.5-6-11.5-13.7-16.2-21.3c-4.1-6.6-3.3-13.7,1.5-20.2
			c1.2-1.6,2.2-3.3,3.6-4.8c10.5-11.7,22.1-13.4,36.8-5.3c4.1,2.2,7.8,5.1,11.5,7.9c6.2,4.6,8.9,4.3,14-1.4c2.2-2.5,4.1-5.3,6.6-7.5
			c4-3.4,4.4-6.8,0.9-10.6c-5.7-6.3-11.5-12.5-17.3-18.8c-0.4,0.4-0.8,0.7-1.2,1.1c1.2,2.8,2.8,5.6,3.4,8.6c0.3,1.8-0.4,4.7-1.7,5.5
			c-1.3,0.8-4.5,0.4-5.7-0.8c-20-19.5-45.4-23-71.6-24.2c-0.5,0-1,0-1.5,0c-3-0.1-6.7,0.3-6.8-3.9c-0.1-4.2,3.6-4.3,6.6-4.1
			c6.8,0.3,13.7,0.5,20.4,1.3c15.1,1.9,29.7,5.7,43.8,13.4c-0.1-1.5-0.1-2.3-0.2-3.2c-0.2-5.8,3.4-8.5,8.7-6.1
			c3.4,1.6,6.8,3.7,9.6,6.2c7.7,7,15.1,14.4,22.7,21.7c3.9-4.7,8.2-10.3,13-15.3c1.5-1.6,4.4-2.4,6.8-2.8c2.6-0.4,4.5-0.8,5.9-3.5
			c15.3-30,30.7-59.9,46.1-89.8c1.4-2.8,2.6-5.7,3.9-8.5c-8.6-6.1-17.2-11.5-25.1-17.9c-11-8.9-21.3-18.8-26.2-32.7
			c-8.3-23.5-10.8-47.9-3.8-71.8c10.2-35,26.2-67.3,52.7-93.4c3.7-3.7,7.2-7.7,11.4-12.1c-9.7,1-18.4,2-27.1,2.7
			c-35.1,2.8-68.8-2.5-100.6-18.1c-7.1-3.5-14.4-7-20.7-11.7c-8-6-12.1-14.7-13.9-24.6c-2.9-15.9-4.5-31.7-0.6-47.6
			c3.8-15.2,12.1-28,21.2-40.5c0.7-0.9,1.4-1.8,2.1-2.7c-15.9-20.5-31-41.1-22.6-68.8c-3-3.7-6-7.1-8.7-10.8
			c-11.8-16.2-23.4-32.5-35.2-48.5c-1.2-1.6-3.6-2.6-5.7-3c-7.4-1.4-11.5-8.2-9.5-16.4c1.7-7.3,7.7-10.9,14.7-8.8
			c5.8,1.7,8.9,8.6,7.8,16.1c-0.3,2.2,0.1,5,1.3,6.7c11.2,15.8,22.6,31.4,33.9,47c0.4,0.5,0.8,0.9,2.3,2.5c0-2.9,0-4.6,0-6.3
			c0.5-18.3,0.8-36.6,1.6-54.9c0.5-11.8,5.1-21.8,14.6-29.5c6.5-5.3,13.7-7.3,21.9-6c1.3,0.2,2.6,0.4,4.4,0.6
			c0.2-3.4,0.3-6.5,0.5-9.6c1.2-26,10.3-49.5,22.7-71.8c21.6-39,47.1-75.1,80.2-105.3c3.7-3.4,6.8-7.3,10.5-10.7
			c2.9-2.6,3.8-5.5,2.7-8.9c-4.3-13.8-8.2-28-17.4-39.5c-7.4-9.2-15.1-18.2-23-27c-6.9-7.7-15.9-12.3-25.9-16
			c-0.1,0.7-0.3,1.3-0.2,1.9c2.4,15-4.5,26.3-14.9,35.8c-28.5,26.1-72.2,31.7-106.8,14.5c-28.4-14.1-48.2-36.7-65.3-62.4
			c-9.8-14.7-19.4-29.5-29.1-44.3c-0.6-1-1.3-1.9-2.1-2.8c-7.8-9.6-8.2-11.4-1.8-22.1c11.4-19.1,27.2-34.1,46.2-45.4
			c36.5-21.8,76.1-29.8,118.1-24.4c29.6,3.8,55,16.6,75.1,39c18.1,20.2,19.3,45.9,3.4,67.9c-1.7,2.4-3.6,4.7-5.8,7.7
			c17.4,6.3,31.6,16.9,45.3,28.7c-10.7-56.2-13.3-111.9,4.7-167.8c-3,0.5-5.3,0.8-7.5,1.2c-27.5,5.3-49.2-3.6-62.3-28.4
			c-16.3-30.8-17.6-62.6,2.2-92.5c10.6-16,25.2-28.6,41-39.8c42-29.8,89.2-46.9,138.9-57.5c42.8-9.2,85.8-11.3,128.9-1.4
			c14.4,3.3,28.1,8.3,40.8,16c1.4,0.9,2.9,1.7,4.2,2.7c5.7,4.4,7.1,6,1.9,11.8c-23.9,26.7-30.5,59.9-35.4,93.8
			c-2.7,18.6-5.8,37.3-10.8,55.3c-8.9,31.8-28.4,56.7-54.6,76.2c-11.6,8.6-23.8,17.1-37,22.6c-12.7,5.3-26.8,7.6-40.5,9.4
			c-16.2,2.1-32.6-0.3-48.5-4.2c-11.2-2.8-19.9-9.8-27.3-18.5c-1-1.1-2-2.2-3-3.3c-0.1-0.1-0.3,0-1.2,0.1c-0.6,9.6-1.5,19.3-1.8,29
			c-0.9,33.9,1.3,67.7,7.9,101c3.4,17,8.3,33.5,16.4,49.1c6.1,11.8,17.1,16.7,28.5,20.4c21.3,7,41.6,16,61.5,26.3
			c30.2,15.7,55.8,37,76.6,63.8c18.3,23.6,31.6,50,39.9,78.9c8.1,28.1,10.5,56.5,6.7,85.5c-5,38.6-20,73.1-42.5,104.4
			c-27.2,37.7-61.3,67.4-104.1,86.6c-2.7,1.2-5.5,2.7-8.4,3c-5.5,0.5-7.3,3.7-8.5,8.6c-2.4,9.7-5.2,19.2-7.7,28.1
			C583.3,960.4,598,967,612,975c16.9,9.7,33.1,20.5,49.5,31c2.8,1.8,5.1,4.3,7.4,6.7c9.2,9.8,10.9,20.8,4.5,32.6
			c-8,14.6-19.3,26.1-33.2,35.2c-14.8,9.8-29.6,19.7-44.5,29.7c3.7,5.7,7.3,11.1,10.6,16.6c4.9,8.4,9,17.3,7.9,27.4
			c-0.5,4-2.5,7.8-3.8,11.7c-1.2,3.3-3,6.5-3.5,10c-2.5,18.6-12.9,32.2-27.6,42.8c-14.1,10.2-30.1,15.4-47.4,17.1
			c-5.9,0.6-7.3,2.6-6.8,8.4c0.4,4.5,0,9,0.4,13.5c2,19.9,8.9,37.9,21.3,53.6c2.5,3.2,5.8,5.7,9.5,9.1c2.2-4.4,3.8-7.8,5.4-11.2
			c2.9-6.2,6.2-7.8,12.3-5c23.1,10.7,46.1,21.6,67.1,36.1c1.8,1.2,2.7,5.2,2.4,7.8c-0.8,8.1-2.2,16.1-3.4,23.5
			c15.9-5.4,31.6-10.6,48.2-16.2c-2.4-20.4-1.1-41.9,4.3-63.1c5.4-21.2,14.3-40.7,29-58.1c-4.8-0.3-8.6-0.2-12.3-0.7
			c-13.2-1.7-21.9-11.2-20.5-22.5c1-8.6,6.2-14.6,13.9-17.6c6.5-2.6,13.6-3.6,20.7-5.4c0-2.5-0.3-5.9,0.1-9.3
			c0.5-3.9,1.1-8,2.7-11.6c5.6-12.7,20.9-14.8,29.8-4.1c2.7,3.3,4.4,7.3,6.9,11.5c5.9-6.9,12.8-12.4,22.8-10.7
			c6.6,1.1,11.6,4.8,15.5,10.2c8.5,11.9,5.5,22.1-10.1,34c2.4,1.6,4.7,3,6.9,4.7c12.3,9.5,13.7,25.1,3.1,35.1c-8,7.6-18.7,8-27.2,1
			c-1.2-1-2.5-2-3.8-3.1c-6.2,21.9-13.3,29.8-25.1,28.8c-11.9-1.1-18.1-10.6-19.7-30.8c-18,13.7-36.6,80.7-28.8,104.4
			c7.2-16.4,20.3-26.8,35.1-35.2c4.1-2.3,8.9-3.5,13.6-4.6c5.8-1.3,7.8,0.6,8.1,6.7c0.8,13.2-2.8,25.1-11.2,35.4
			c-3.8,4.6-8,8.8-12.8,13.9c4.3,0,8.1-0.1,11.8,0c2.5,0.1,5.2,0,7.4,0.9c1.9,0.8,3.2,3,4.8,4.6c-2,1-3.9,2.9-5.9,2.9
			c-6.8,0.3-13.7-0.6-20.4-0.1c-17.5,1.4-34.7,4.9-50.8,12.2c-3.7,1.7-7,4.5-10.7,6.3c-1.6,0.8-3.8,0.2-5.8,0.3
			c0.1-2-0.5-4.7,0.6-5.8c2.3-2.5,5.3-4.7,8.4-6.1c7.9-3.6,15.9-6.6,24-9.9c-0.8-1.6-1.8-3.4-2.8-5.5c-17.5,3.6-34.5,8.7-49.8,18.2
			c-1.5,1-2.6,3.4-3,5.3c-2.2,10.8-4,21.6-6.1,32.4c-1.9,9.8-4.6,19.5-13.8,25c-9.6,5.7-19.7,10.6-31.5,8.8
			c-10.5-1.6-17.4-9.1-16.6-19.6c0.7-9.4,2.9-18.7,4.7-28c0.5-2.8,1.8-5.4,2.4-8.1c1.5-6.7,0.4-10-5.7-13.3
			c-8.1-4.5-16.4-8.9-25-12.2c-5.2-2-6.4-4.9-6.6-9.6c-0.1-1.6-1-4-2.2-4.7c-21.6-12.1-36.8-29.8-46.7-52.4
			c-0.4-0.9-0.8-1.8-1.3-2.7C488.7,1303.3,488.5,1303.2,487.5,1302.5z M597,1174.6c-3,0-5.8,0.5-8.3-0.1c-5.4-1.3-11.6-1.8-15.8-4.9
			c-20-14.9-33.7-34.2-38.8-59.1c-1.9-9.5,1-16.2,8.8-21.4c8.4-5.7,16.7-11.5,25-17.5c1.3-0.9,2.8-3.3,2.4-4.4
			c-4.8-14.1-5.1-28.5-3.8-43c0.3-2.8-0.6-3.9-3.1-4.7c-2.6-0.7-5.4-1.3-7.4-2.8c-1.6-1.2-2.3-3.7-3.4-5.7c2.1-0.8,4.2-2.3,6.3-2.3
			c2.4,0,4.8,1.3,7.1,2.3c13.7,5.5,27.5,11.1,41.2,16.8c5,2.1,10.1,4.3,14.8,7c6.9,4.1,7,6.5,0.4,11.2c-8.4,6-17.2,11.4-25.7,17.2
			c-16.4,11.2-32.6,22.5-49,33.7c-4.1,2.8-5.7,6.2-4.8,11.5c3.1,18,12.7,32.3,24.9,45.2c5.1,5.4,10.6,10.5,18.3,11.4
			c3.3,0.4,7.7-0.3,10-2.4c4.8-4.3,7.2-10.1,5.9-17.1c-1.8-9.9-6.2-18.6-12-26.6c-3-4.1-6.2-8.1-9.5-12.5c2.6-1.6,4.8-3.1,7-4.5
			c16.9-10.7,33.8-21.4,50.6-32.2c10.5-6.8,18.8-15.9,25.4-26.5c6.1-9.8,5.2-17.1-3.2-25c-3.4-3.2-7-6.3-10.8-8.8
			c-27.7-18.3-56-35.3-87.4-46.6c-4-1.4-5-3.3-4.4-7.7c2.3-15.9,10.7-29.4,16.1-44.1c0.4-1.2,1.8-2.4,2.9-2.8
			c6.8-2.5,14.1-4,20.5-7.2c40.8-20.3,73.1-50.3,98.1-88.2c17.7-26.7,29.4-55.8,34.5-87.6c5.9-37,0.2-72.5-13.4-106.8
			c-10.2-25.9-25.2-49.1-44.3-69.6c-16.7-17.8-35.4-33.1-57.2-43.9c-21.9-10.8-44.6-20-67.1-29.4c-18.3-7.6-30.1-20.6-36.4-39.3
			c-8.2-24.3-10.2-49.8-14.1-74.9c-1.8-11.8-3-23.9-3-35.8c-0.1-20.3-0.3-40.7,2-60.8c2-17.6,7.4-34.8,11.4-52.1
			c0.9-3.8,0.7-7.2-3-9.1c-3.9-2.1-7.7-0.9-10.1,2.7c-2.7,4.2-5.4,8.5-7.4,13c-11.2,25.6-14.3,52.9-15.7,80.5
			c-2.2,42.8,7.7,84.5,12.2,126.7c0.9,9,2.3,18,3.4,27c-0.5,0.1-0.9,0.2-1.4,0.3c-2.9-10-6.3-20-8.5-30.2c-1.8-8-4.4-14.8-11.5-19.8
			c-11.1-7.9-21.1-17.5-32.7-24.4c-16.8-10-35.6-12.8-55-8.7c-1.8,0.4-3.3,2.2-4.9,3.4c1.4,1.5,2.6,3.2,4.1,4.5
			c0.7,0.6,1.8,0.8,2.8,1.1c9.1,3.2,18.3,6,27.3,9.6c25.2,10,43.6,28.3,59.2,49.8c9.7,13.3,13.3,29,16.9,44.5
			c0.7,3.2-0.8,7.7-2.9,10.6c-3.8,5.2-8.3,10-13.1,14.4c-34.5,31.8-60.9,69.7-82.5,111c-11.1,21.2-18,43.7-17.5,68
			c0.1,4.2,0.7,7.7,4,10.7c2,1.8,3.9,4.4,4.6,7c3,10.7,6.9,21.4,8.1,32.4c1.7,15.7,1.5,31.6,1.8,47.4c0.1,4.2,1.3,7.5,4.2,10.8
			c8.9,9.9,17.6,20,26.1,30.3c7.8,9.6,14.7,19.8,17.4,32.2c0.4,1.8,2,3.5,3.4,4.7c7.9,6.9,15.8,13.9,24.1,20.3
			c16.5,12.7,34.3,22.5,55.6,24.1c5.8,0.4,11.7,0.5,17.5,1.1c5.3,0.5,8.6,3.6,8.2,7.6c-1.6,16.7-6.4,32.3-16.1,46.1
			c-1.1,1.6-3.2,3.1-5.1,3.5c-4.7,0.9-9.5,1.2-14.3,1.7c-31.6,3.4-63.1,5.4-94.7,0.4c-16.7-2.7-33.1-6.3-47.6-15.7
			c-12.5-8-17.9-19.2-15.3-32.1c1.9-9.3,7.5-16.5,13.8-23.3c5.9-6.3,11.8-12.7,17.2-19.4c1.5-1.8,1.8-5.3,1.3-7.7
			c-0.7-3.3-2.3-6.7-4.2-9.5c-10-15-20-29.9-30.4-44.5c-3-4.3-7.2-7.9-11.1-11.4c-2.8-2.5-6.6-4.9-9.9-2.3c-2.4,1.9-3.9,5.7-4.4,8.9
			c-1.3,9.4,1.4,18.3,6,26.4c5.9,10.4,12.5,20.5,19,30.5c1.6,2.5,2,4.3-0.2,6.5c-3.1,3.1-6.3,6-8.8,9.5
			c-13.4,18.2-19.1,38.5-16.1,61.2c2.1,15.9,8.3,28.4,23,36.9c24.2,13.9,50.1,20.7,77.6,22.2c24.1,1.3,47.9-2,71.5-6.9
			c2.2-0.4,4.6,0.4,7,0.7c0.1,0.6,0.2,1.3,0.3,1.9c-6.3,6.4-12.4,12.9-18.8,19.2c-28.4,27.5-48.9,59.6-58.8,98.2
			c-6.7,26.3-5,51.6,9.3,75.2c10.3,17,24.3,30,43.3,36.8c3.9,1.4,4.7,3.5,3,7.2c-2.4,5.3-4.4,10.8-7.1,16
			c-16,31.1-32.1,62.1-48.5,93.7c7.8,3.7,15.2,7.2,22.1,10.5c14.9-25.7,29.4-50.6,43.9-75.4c10.1-17.3,20.1-34.5,30.4-51.7
			c1-1.6,3.7-3,5.7-3c21.2-0.2,39.9-7.2,55.6-21.3C589.5,1196.7,595.4,1187.1,597,1174.6z M635.1,67.5c0.2,0.4,0.4,0.9,0.6,1.3
			c-1.4,1-2.6,2.2-4.1,2.9c-13.8,5.7-26.1,14.1-37.6,23.4c-15.2,12.3-30.6,24.7-41.4,41c-13.1,19.8-24.4,40.8-36.4,61.4
			c-0.5,0.9-0.6,2.2-0.7,3.3c-0.3,4,0,8-0.7,11.9c-1.9,10-4.3,19.8-6.2,29.8c-0.6,3-1.2,6.6-0.1,9.2c6,14.9,16.2,25.7,32.2,29.3
			c7,1.6,14.5,1.5,21.8,2.2c20.2,2,39.8-1.1,58.8-7.6c7.4-2.5,14.2-7.1,20.9-11.4c35.1-22.5,59.8-52.8,68.5-94.3
			c3.6-16.9,5.7-34.2,8.4-51.3c3.7-22.9,8.1-45.7,20.4-65.9c4.2-7,8.9-13.6,13.5-20.6c-1.1-0.7-1.9-1.3-2.8-1.8
			c-22.4-12.6-46.9-17.8-72.2-19.6c-41.6-2.9-82.1,3.1-121.8,15c-38,11.4-74.8,25.4-105.7,51.3c-9.4,7.9-18.9,15.9-27.4,24.7
			c-9.6,10-16.7,21.8-19.1,35.7c-3,17.3-0.8,34.2,6.3,50.4c9.3,21.1,26.5,31.8,48.8,29.4c11.4-1.3,22.5-4.1,29.7-14.9
			c3-4.6,7.4-8,13.3-9c1.2-0.2,2.6-1.8,3.2-3.1c11-23.7,24.7-45.9,43.3-64.3c12.3-12.1,26-22.8,39.2-34c11.7-10,25.5-16.2,39.4-22.2
			C629.8,68.7,632.5,68.2,635.1,67.5z M249.9,337.2c0.1-0.1,0.2-0.2,0.3-0.3c8.4,0,16.8-0.3,25.1,0.1c19.8,0.9,38.6,7.1,57.5,12.2
			c10.4,2.8,20.5,6,29.5,12c2.3,1.5,3.9,1,6.3-0.2c3.3-1.7,7.2-3.2,10.8-3.1c10.1,0.3,20.2,1.6,30.4,2.2c2,0.1,4.7-0.6,6.2-1.9
			c19.3-17.6,20.9-43.4,3.6-62.9C400,273.2,374.9,262,346,258.8c-24.5-2.7-48.6-0.2-72,7.6c-20.6,6.8-40.2,15.9-55.6,31.5
			c-9,9-16.1,19.8-23.8,30c-0.8,1-0.2,3.8,0.7,5.2c7.4,11.3,15.2,22.3,22.6,33.6c14,21.5,27.8,43.2,48,59.8
			c24.2,19.9,51.1,29.8,82.6,22.2c17.2-4.2,32.5-12,43.6-26.4c4.8-6.2,7.4-13.1,5.3-21c-1.2-4.6-3.7-7.8-8.9-9
			c-5.3-1.2-10.8-2.8-15.4-5.4c-4-2.3-8.4-5.8-9.9-9.8c-1.8-4.7-4.5-7.6-8.3-9.9c-5.3-3.2-10.6-6.2-16.3-8.7
			c-26-11.6-53.6-16.9-81.7-19.7C254.4,338.4,252.2,337.7,249.9,337.2z M386,885.3c-7.3,9.1-16,17-21.2,26.8
			c-8,15.2-8.9,23.5,7,32.5c6.6,3.7,13.9,6.5,21.2,8.7c26.4,7.9,53.6,8.1,80.8,6.8c14.1-0.7,28.2-2.2,42.3-3.6
			c1.3-0.1,2.7-1.7,3.5-2.9c6.2-8.9,9.5-19,11.5-29.6c1.1-5.7,0.8-6.3-5.2-6.4c-23.6-0.2-44.8-7.7-63.8-21.6
			c-10.1-7.4-19.7-15.3-29.5-23C415.6,894,400.2,897.1,386,885.3z M454.2,1370.8c-2.6-1.2-4.3-2-6.1-2.9
			c-11-5.2-22.1-10.2-32.8-15.8c-3.8-2-5.4-1.6-7.9,1.9c-8.2,11.5-16.8,22.8-25.6,33.8c-6,7.5-11.4,8.4-19.7,3.7
			c-5.9-3.3-11.4-7.4-17.2-11c-7.6-4.7-13.7-4.4-20.4,0.6c-6.1,4.6-8.9,11.9-5.5,19.6c2.8,6.3,7.2,12.5,12.2,17.2
			c16,15.2,33.9,28,52.6,39.5c5.8,3.6,11.3,2.4,15-3.3c11.2-17.2,22.3-34.4,33.5-51.5C439.3,1392.2,446.6,1381.9,454.2,1370.8z
			 M548.3,1364.3c3.8,1.3,6.5,2.1,9.1,3.1c6.3,2.5,12.6,5.2,18.9,7.8c6.1,2.6,9.8,7.4,9.4,14c-0.4,6.7-1.8,13.4-2.9,20.1
			c-1.3,8-3.5,15.9-4.1,24c-0.6,7.8,3.5,11.1,11.4,11.2c13.5,0.3,26-8.6,28.5-21.6c4.9-25,9.2-50.1,13.5-75.2c0.2-1.4-1.4-4-2.8-4.7
			c-15.3-8.1-30.7-16.1-46.2-23.8c-3.6-1.8-7.7-2.7-11.8-4.1C563.7,1331.4,556.2,1347.5,548.3,1364.3z M543.8,1350.6
			c3.4-7.4,6.5-14.1,9.7-21.1c-10.1-5.8-17.2-14-22.2-23.7c-4.9-9.7-9-19.7-13.6-29.9c-5.9,5.6-11.6,11.4-17.8,16.7
			c-2.6,2.3-3,4.1-1.8,7.2c8,20.6,22.2,36,40.3,48.1C539.9,1348.9,541.6,1349.5,543.8,1350.6z M349.3,720.3
			c-7.4,2-13.4,3.8-19.6,5.1c-3.2,0.7-4.5,1.9-4.5,5.2c0,6-0.6,12-0.7,18c-0.1,7.1,0,14.2,0,21.8c7.8-1.4,15-2.5,22.1-4
			c1.1-0.2,2.5-2.1,2.5-3.3C349.4,749.3,349.3,735.5,349.3,720.3z M744.8,1316.5c-1.3,0.2-2.3,0.2-3.2,0.6
			c-14.9,6.5-27.4,15.8-35.5,30.2c-3.5,6.2-4.9,13-2.4,20.1C733.2,1359.3,748.5,1331.5,744.8,1316.5z M716.1,1226.6
			c5.2-1.2,9.9-2.1,14.5-3.3c2.7-0.7,3.8-2.2,3.6-5.4c-0.3-3.9,0.7-7.8,0.8-11.8c0-1.5-0.5-3.3-1.5-4.4c-7.7-8.2-26.6-4.6-33.1,3
			c-5.7,6.6-4.5,14.4,3.2,18.3C707.4,1224.9,712,1225.5,716.1,1226.6z M780.2,1171.5c-1.7,1.1-5.9,2.6-8.2,5.6
			c-3.3,4.2-5.5,9.4-7.6,14.4c-1.6,4,2.9,12.2,6.9,13.6c0.7,0.3,1.7,0.2,2.4,0c5.9-2.3,12-4.1,17.4-7.2c6.1-3.4,8.1-9.2,6.3-14.8
			C795.3,1176.8,788.6,1171.5,780.2,1171.5z M579.4,1063.5c11.2-7.7,22-15.1,32.8-22.5c-0.2-0.5-0.4-1.1-0.6-1.6
			c-11.8-5-23.7-10-35.7-15.1C573.5,1036.5,575.2,1055.2,579.4,1063.5z M740.3,1231.9c-7.5,7.3-9.1,19.1-3.2,28.5
			c4.7,7.5,13.1,8.1,18.7,1.3c5.8-7.1,6.8-15.4,5.1-24c-0.3-1.3-2.4-2.8-3.9-3.1C751.8,1233.5,746.7,1232.9,740.3,1231.9z
			 M777.7,1213.8c-0.6,0.2-3.6,0.5-3.7,1.3c-0.9,6-6.3,11.5-2,18c1.7,2.6,3.3,5.5,5.4,7.7c5.4,5.8,11.9,6.4,17.3,2
			c6.2-5,7.5-12.8,3-19.1C793.2,1217.2,786.7,1214.2,777.7,1213.8z M754.8,1194.4c0.2-3.7,1.1-7.4,0.4-10.7
			c-1.2-5.4-2.4-11.2-5.3-15.7c-4.3-6.4-12.2-5.4-15.8,1.5c-3.3,6.2-4,13-0.6,19.2c1.8,3.3,5.4,6.8,8.9,7.7
			C746,1197.3,750.4,1195.3,754.8,1194.4z M753.9,1226.6c5.8,0.1,11.3-5,11.3-10.4c0-6.8-5-12.9-10.5-13.1c-8.8-0.3-13,3.2-13,11
			C741.6,1220.9,747,1226.5,753.9,1226.6z"/>
		<path class="st0" d="M155.6,644.2c0.4,6.8-2.6,14.4-6.1,15.1c-5.7,1.2-9.9-1.7-13.6-6.3c-2.6,4.8-4.8,9.4-7.5,13.9
			c-8.4,13.9-19.7,24.3-36.1,27.9c-7.4,1.6-14.7,0.7-21.4-2.7c-10.9-5.4-16.2-17.4-13.1-30.6c1.3-5.6,3.8-11,5.9-16.4
			c2.7-6.8,1.8-10.2-4.8-13.5c-7-3.5-14.4-6.2-21.3-9.9c-6.6-3.6-13-7.6-18.9-12.1C3,597.5-3,581.4,1.4,561.9
			c4-18.3,13.4-32.9,31.9-39.2c13.1-4.4,26.1-1.3,38.4,4.1c14.1,6.2,26.1,15.3,36.1,27.1c0.8,0.9,1.5,1.7,2.3,2.6
			c0.1,0.1,0.3,0.1,1.2,0.3c0-3.4,0.6-6.9-0.1-10c-3.3-16.1-10.3-30.2-23.5-40.7c-6.1-4.9-12.8-8.2-20.9-8.7
			c-1.7-0.1-3.2-2.1-4.8-3.2c1.7-1.2,3.4-3.4,5.1-3.4c12.2,0.3,22,6.3,30.2,14.8c4.9,5.1,8.9,11.1,13.5,16.9
			c0.2-0.7,0.5-1.4,0.5-2.1c0.9-19.5,9.9-35.4,22.1-49.7c1.2-1.4,4.6-2.6,5.7-1.9c2.9,1.9,1,4.3-0.7,6.3
			c-15.8,17.8-22.8,38.4-20.1,62.2c0.8,7.7,0.4,7.7,8.4,9.4c0.2-0.3,0.6-0.7,0.6-1.1c0.3-26.2,14.1-45,34-59.7
			c7.3-5.5,16-9.8,24.7-12.7c22.7-7.5,40.3,5.3,42.6,29.3c1.6,16.8-2.7,32.1-10,46.8c-4.6,9.4-10.1,18.4-15.5,27.4
			c-8.4,13.9-8.5,13.8,4.1,23.7c3.4,2.7,6.8,5.4,9.7,8.6c7.4,8,10.8,17.5,6.9,28.1c-4.4,11.6-13.1,18.6-25.6,20.5
			c-9.6,1.5-18.5-1.3-27-5.4C166.2,649.6,161.2,647,155.6,644.2z M45.6,529.3c-8.1,0-12.7,1.5-18.7,5.9c-23.6,17.5-24.7,51.8-1.1,69
			c10.6,7.7,23.1,13,35,19c12.6,6.3,15.4,13.9,10,26.8c-2.4,5.8-4.6,11.9-5.2,18.1c-1,10.1,5.5,17.1,15.5,18.6
			c13.5,1.9,23.5-4.5,32.2-13.6c9-9.3,14-21,17.8-33.2c0.6-2,0-4.6-0.7-6.7c-3.5-12.1-7.4-24.2-10.9-36.4
			c-3.3-11.3-4.6-23.4-14.2-32.1c-4.1-3.8-7-8.9-11.2-12.7C80.5,539.4,65,530,45.6,529.3z M153.2,634.4c4,1.6,7,2.8,10,4.1
			c7.9,3.4,15.6,7.7,23.8,10.1c11.4,3.4,23.1-2.4,28.2-12.6c4.1-8.3,1.2-17.2-8.4-25.4c-1.6-1.4-3.4-2.7-5.1-4.1
			c-2.8-2.3-5.7-4.6-8.4-7c-4.9-4.3-5.6-9.7-3.4-15.5c1.2-3.1,2.8-6.1,4.4-8.9c4-6.9,8.5-13.6,12.3-20.6
			c8.4-15.5,15.2-31.4,13.8-49.8c-1.5-20.7-14.7-29.9-34.3-23c-14.7,5.2-26.7,14.3-36.3,26.4c-8.9,11.2-14.9,23.7-14,38.6
			c0.1,1.9-0.9,3.8-1.3,5.7c-0.3,1.3-0.8,2.8-0.5,4c4.6,18.1,9.4,36.1,14,54.2C150.1,618.8,151.6,627,153.2,634.4z"/>
		<path class="st0" d="M236.5,1382.5c-21.6,1.7-41.1-6.1-58.2-20c-3.6-3-6.7-7-9-11.1c-3.1-5.7-1.7-9.3,4.3-11.5
			c5.4-2,11.2-3.9,16.8-4c26.7-0.6,46.8,10.7,59.6,34.5c0.9,1.8,2,3.5,2.8,5.3c2.2,4.5,0.4,7.2-4.5,7c-1.8-0.1-3.7-0.2-5.5-0.2
			C241.1,1382.5,239.2,1382.5,236.5,1382.5z M241.2,1374.2c-4-22-46.3-39.3-64.4-26.3C182.7,1363.4,216.5,1377.2,241.2,1374.2z"/>
		<path class="st0" d="M741.2,1410.2c-10.9,4.6-17,13.4-22.2,22.9c-1,1.7-1.5,3.9-2.8,5.2c-1.1,1.1-3.6,2.3-4.5,1.8
			c-1.3-0.8-1.7-3.1-2.4-4.7c-0.1-0.2,0.1-0.6,0.3-0.9c6.4-14.3,15.1-26.6,29.8-33.5c2.2-1,4.7-2.1,7.1-2.1c2.4,0,5.6,0.7,6.9,2.3
			c0.9,1.1-0.3,4.5-1.3,6.6c-2.2,4.6-4.8,8.9-6.2,14c4.7-3.6,9-7.7,14-10.7c7.4-4.4,15.3-8,23-11.8c1.9-0.9,4.1-1.4,6.3-1.6
			c3-0.4,7-1.7,7.9,2.6c1,4.6-3.3,4.4-6.3,5.2c-19.5,5-34.8,16.1-47.3,31.6c-1.4,1.7-3.8,2.6-5.7,3.8c-1.3-2.3-3.9-4.8-3.6-6.9
			c0.9-6.2,2.9-12.2,4.7-18.2C739.5,1413.7,740.5,1412,741.2,1410.2z"/>
		<path class="st0" d="M243.1,1415c5.3,4.7,10.3,8.3,14,12.8c2.8,3.3,4.4,7.7,5.8,11.9c0.4,1.1-1.4,4-2.7,4.4
			c-1.2,0.4-4.1-1.2-4.5-2.4c-5-14.5-16.9-19.7-30.3-23c-4.3-1-9-1-13.3-2c-1.8-0.4-3.1-2.6-4.6-4c1.6-1.1,3.1-3.1,4.7-3.2
			c11.7-0.5,23.6-1.6,35.2-0.7c12.6,1,24.1,6.7,33.6,15.2c3.6,3.2,6.4,7.6,8.8,11.9c0.7,1.2-1,3.9-1.6,5.9c-1.8-0.8-4.4-1.2-5.2-2.6
			C274.5,1423.8,259.2,1419.7,243.1,1415z"/>
		<path class="st0" d="M465.6,1430c0.8,0.8,3.3,2.5,3.1,3.2c-0.6,1.9-2.2,3.9-3.9,4.8c-8.7,4.7-18,8.6-26.4,13.7
			c-5,3.1-8.6,8.2-13.2,12c-1.6,1.3-4.2,1.3-6.3,1.9c0-2.2-0.9-5.2,0.2-6.6c11.3-14.3,26.1-23.4,43.4-28.6
			C463.2,1430.3,463.8,1430.3,465.6,1430z"/>
		<path class="st0" d="M787,1369.7c-3.9-0.6-5.1-2.8-4-5.4c1-2.5,2.6-5.3,4.8-6.7c9.6-6.2,19.3-12.2,29.3-17.8
			c1.4-0.8,4.2,0.8,6.4,1.4c-1.1,1.9-1.7,4.6-3.4,5.7c-6.7,4.2-14,7.6-20.7,11.9c-3.5,2.3-6.3,5.7-9.5,8.6
			C789,1368.3,787.8,1369.1,787,1369.7z"/>
		<path class="st0" d="M495.8,707.3c-6.2-0.7-15.2-4.8-20.7-14.7c-8.7-15.7-12.4-32.7-11.7-50.4c0.9-22.7,22.4-33,41.7-21.1
			c17.5,10.9,22.8,28.1,26.2,46.6c0.9,4.7,1.2,9.7,0.6,14.4C529.7,697.6,521.6,708,495.8,707.3z M499.6,699.4
			c12.7,3.1,23.9-6.1,24.5-19.7c0.7-15.7-4.5-29.5-13.6-41.8c-3.1-4.1-7.5-7.7-12-10.3c-11.8-6.9-24.7-0.2-26,13.4
			c-0.5,5.2,0.4,10.5,0.7,15.8C487.3,655.2,504.1,679.8,499.6,699.4z"/>
		<path class="st0" d="M549.8,629.3c-0.8-13.5,3.4-24.7,14.8-32.5c6.2-4.3,12.7-4.4,19.9-2.2c18.8,5.8,24.5,21.1,28.2,37.8
			c2.5,11.1,3.3,22.4,0.5,33.6c-2.4,9.8-8.5,16.3-17.9,19c-9.7,2.8-19.1,1.8-26.9-5.8C554.3,665.5,551.2,647.7,549.8,629.3z
			 M584,677.7c11,1.8,19.3-3.9,21.4-14.5c3.2-16.1,0.6-31.5-6.1-46.2c-4.4-9.8-14.4-15.2-23.3-13.5c-14.9,2.8-23.5,20.8-16.4,34.5
			c10.8-3.1,16.2,0.5,22.7,11.7C587.3,658.4,585.9,668,584,677.7z"/>
		<path class="st0" d="M568.5,548.5c-3.6,0.5-10.3,1.6-17,2.6c-1.1,0.2-2.4,1-3.4,0.7c-1.9-0.5-3.6-1.6-5.3-2.5
			c1-1.7,1.7-4.4,3.1-4.8c18.2-5.1,36.3-6.3,54,1.9c1,0.5,2,1.2,2.9,1.9c2.2,1.8,4.1,4.4,1.6,6.7c-1.1,1-4.7,0.6-6.4-0.4
			C589.9,549.7,581,548.7,568.5,548.5z"/>
		<path class="st0" d="M435.8,590.2c1.4-3.1,2.3-5.4,3.6-7.5c7.9-12.5,19.1-20.6,33.1-24.9c0.9-0.3,2.1-0.8,2.9-0.5
			c2,0.7,3.7,1.9,5.6,2.9c-1.3,1.6-2.4,4.1-4.1,4.6c-9.9,2.8-18.5,7.5-25.3,15.1c-3,3.4-4.9,7.8-7.7,11.5c-1,1.3-3.2,2.8-4.6,2.6
			C437.9,593.8,436.9,591.5,435.8,590.2z"/>
		<path class="st0" d="M96,587.2c-0.1,22.4-20.6,35.8-38.2,27.6c-8-3.8-15.5-9-22.4-14.6c-13.2-10.5-14.2-25-10.2-39.9
			c2.7-10,15.9-22,28-17.4c7.7,2.9,15.2,6.6,22.4,10.6C90.1,561.6,95.2,575,96,587.2z M89.2,587.1c-0.6-9.6-4.7-21-17-27.7
			c-5.5-3-11.3-5.5-17.1-7.9c-9-3.8-21.3,1.8-23.5,11.3c-2.9,12.2-2.4,24.2,8.6,32.7c6.4,4.9,13.1,9.8,20.4,13.2
			C73.8,614.8,89.2,604.7,89.2,587.1z"/>
		<path class="st0" d="M116,642.4c0,11-9.2,24.2-19.6,27.9c-9.1,3.3-17.5-2.2-17-11.9c0.2-5.3,2-10.7,3.8-15.8
			c1.5-4.2,4.1-8,6.2-11.9c4.1-7.3,16.4-8.5,22-1.6c2.8,3.5,4,8.4,5.8,12.7C116.8,642.1,116.4,642.3,116,642.4z M109.2,642.4
			c0-0.8,0.1-1.7,0-2.5c-0.5-4.1-2.3-7.3-6.7-8.3c-4-0.9-6.1,1.1-7.5,4.7c-0.9,2.1-3,3.7-3.8,5.8c-1.9,5.2-4.2,10.5-4.9,15.9
			c-0.8,5.4,3.3,7.7,8.5,5.6C102.3,660.5,109.2,650.4,109.2,642.4z"/>
		<path class="st0" d="M144.9,558.7c0.5-20.2,5.2-38.6,22-51.8c7.4-5.8,15.6-10.1,24.8-5.6c9.4,4.6,12.8,13.6,13,23.7
			c0.5,18.1-6.6,33.3-18.9,46.3c-7.8,8.2-17.6,10.3-28.4,8.1c-7.8-1.6-12.3-7.1-12.6-15.2C144.9,562.4,144.9,560.5,144.9,558.7z
			 M198.1,527.8c0-0.7,0-1.3,0-2c-0.2-7.5-2.1-14.8-9.1-18.3c-7.1-3.5-13.2,0.8-18.5,5.3c-16.7,13.9-19.6,32.8-18.6,52.9
			c0.1,2,2.3,4.8,4.2,5.7c6.3,2.9,13.2,3.6,19-0.7C189.3,560,197.2,545.7,198.1,527.8z"/>
		<path class="st0" d="M174.3,600.5c16.4,0.3,26.3,9.4,25.9,23.8c-0.3,10-5.5,14.5-15.4,13.5c-13.1-1.3-23.4-10.2-24.8-21.3
			C158.9,606.9,164.7,600.4,174.3,600.5z M174.7,606.7c-2,0.8-4.8,1.1-6,2.6c-3.1,3.8-2.4,10.7,1.3,14.3c4.5,4.4,9.9,7.2,16.4,7.7
			c4.4,0.4,6.4-1.7,6.9-5.9C194.4,614.6,187.5,607.8,174.7,606.7z"/>
	</g>
	<g>
		<path class="st0" d="M534.5,761.3c0.2-0.5,0.3-1,0.5-1.4c1.5,0,3,0.1,4.5,0c13.9-0.9,27-4.2,38.3-12.6c2.8-2,4.8-5.3,6.6-8.4
			c0.5-0.9-0.8-3.7-2-4.3c-0.9-0.5-3.2,0.7-4.4,1.7c-2.6,2.2-4.6,5.3-7.4,7.1c-11.6,7.4-24.7,9.6-38.2,9.5c-2.8,0-5.6-1.7-8.4-2.2
			c-2-0.4-4.1-0.1-6.1-0.1c0.7,2,0.8,5.1,2.1,5.7C524.5,758.3,529.6,759.6,534.5,761.3z"/>
		<path class="st0" d="M534.5,761.3c-4.9-1.7-9.9-3-14.6-5.2c-1.3-0.6-1.4-3.8-2.1-5.7c2,0,4.1-0.3,6.1,0.1c2.9,0.5,5.6,2.2,8.4,2.2
			c13.5,0.1,26.6-2.1,38.2-9.5c2.8-1.8,4.8-4.9,7.4-7.1c1.2-1,3.5-2.2,4.4-1.7c1.2,0.7,2.5,3.5,2,4.3c-1.8,3.1-3.8,6.3-6.6,8.4
			c-11.3,8.3-24.5,11.7-38.3,12.6c-1.5,0.1-3,0-4.5,0C534.8,760.3,534.6,760.8,534.5,761.3z"/>
	</g>
</g>
</svg>
