<?xml version="1.0" encoding="utf-8"?>
<!-- Generator: Adobe Illustrator 23.0.3, SVG Export Plug-In . SVG Version: 6.00 Build 0)  -->
<svg version="1.1" id="Layer_1" xmlns="http://www.w3.org/2000/svg" xmlns:xlink="http://www.w3.org/1999/xlink" x="0px" y="0px"
	 viewBox="0 0 35.2 44.9" style="enable-background:new 0 0 35.2 44.9;" xml:space="preserve">
<g>
	<path d="M17.6,8.7L17.6,8.7c2.6,0,4.9,1.2,5.8,3c1.3,2.5-0.3,5.3-3.5,6.3c-0.8,0.2-1.5,0.4-2.3,0.4c-2.6,0-4.9-1.2-5.8-3
		C10.5,12.8,12,10,15.3,9C16,8.8,16.8,8.7,17.6,8.7 M17.6,5.8c-1.2,0-2.5,0.2-3.8,0.6c-5.2,1.6-7.6,6.1-5.6,10
		c1.6,3,5.3,4.8,9.3,4.8c1.2,0,2.5-0.2,3.8-0.6c5.2-1.6,7.6-6.1,5.6-10C25.4,7.6,21.6,5.8,17.6,5.8L17.6,5.8z"/>
	<polygon points="23.9,44.9 10.7,44.9 8.8,31.4 26.4,31.4 	"/>
	<rect x="14.7" y="20.7" width="5.7" height="11.6"/>
	<ellipse transform="matrix(0.836 -0.5487 0.5487 0.836 -0.3868 7.8353)" cx="12.9" cy="4.6" rx="3" ry="5.1"/>
	<ellipse transform="matrix(0.5695 -0.822 0.822 0.5695 5.8881 20.5216)" cx="22.5" cy="4.6" rx="5.1" ry="3"/>
	<ellipse transform="matrix(0.9656 -0.26 0.26 0.9656 -1.5706 7.9499)" cx="29.3" cy="9.9" rx="6.1" ry="2.5"/>
	<ellipse transform="matrix(0.274 -0.9617 0.9617 0.274 4.546 40.6112)" cx="29.2" cy="17.3" rx="2.5" ry="6.1"/>
	<ellipse transform="matrix(0.836 -0.5487 0.5487 0.836 -8.6678 15.9185)" cx="22.3" cy="22.5" rx="3" ry="5.1"/>
	<ellipse transform="matrix(0.5695 -0.822 0.822 0.5695 -12.9428 20.0615)" cx="12.7" cy="22.4" rx="5.1" ry="3"/>
	<ellipse transform="matrix(0.9656 -0.26 0.26 0.9656 -4.2447 2.1348)" cx="5.9" cy="17.1" rx="6.1" ry="2.5"/>
	<ellipse transform="matrix(0.274 -0.9617 0.9617 0.274 -4.9702 12.8799)" cx="6" cy="9.7" rx="2.5" ry="6.1"/>
	<rect x="7.6" y="31.4" width="20.7" height="2.4"/>
</g>
</svg>
